<svg xmlns="http://www.w3.org/2000/svg" data-name="Layer 1" viewBox="0 0 32 32"><rect width="17" height="31" x="7.5" y=".5" fill="#8b8891" rx="2" ry="2"/><path fill="#82c8ec" d="M18.707,2.793l-.414.414a1,1,0,0,1-.707.293H14.414a1,1,0,0,1-.707-.293l-.414-.414a1,1,0,0,0-.707-.293H10.5a1,1,0,0,0-1,1v22h12a1,1,0,0,0,1-1V3.5a1,1,0,0,0-1-1H19.414A1,1,0,0,0,18.707,2.793Z"/><circle cx="16" cy="28.5" r="1" fill="#ececec"/><circle cx="25.5" cy="25.5" r="6" fill="#fedc55"/><path d="M16,27a1.5,1.5,0,1,0,1.5,1.5A1.5,1.5,0,0,0,16,27Zm0,2a.5.5,0,1,1,.5-.5A.5.5,0,0,1,16,29Zm9.5-10c-.17,0-.34.01-.5.02V2.5A2.5,2.5,0,0,0,22.5,0H9.5A2.5,2.5,0,0,0,7,2.5v27A2.5,2.5,0,0,0,9.5,32h13a2.511,2.511,0,0,0,1.13-.27A6.761,6.761,0,0,0,25.5,32a6.5,6.5,0,0,0,0-13ZM9.5,31A1.5,1.5,0,0,1,8,29.5V2.5A1.5,1.5,0,0,1,9.5,1h13A1.5,1.5,0,0,1,24,2.5V19.18a6.852,6.852,0,0,0-1,.32V3.5A1.5,1.5,0,0,0,21.5,2H19.41a1.516,1.516,0,0,0-1.06.44l-.41.41a.469.469,0,0,1-.35.15H14.41a.469.469,0,0,1-.35-.15l-.41-.41A1.516,1.516,0,0,0,12.59,2H10.5A1.5,1.5,0,0,0,9,3.5v22a.5.5,0,0,0,.5.5h9.52a6.47,6.47,0,0,0,3.03,5ZM22,3.5V20.03A6.492,6.492,0,0,0,19.02,25H10V3.5a.5.5,0,0,1,.5-.5h2.09a.469.469,0,0,1,.35.15l.41.41A1.516,1.516,0,0,0,14.41,4h3.18a1.516,1.516,0,0,0,1.06-.44l.41-.41A.469.469,0,0,1,19.41,3H21.5A.5.5,0,0,1,22,3.5ZM25.5,31a4.834,4.834,0,0,1-.94-.09A5.425,5.425,0,0,1,20.03,26a4.178,4.178,0,0,1,0-1A5.468,5.468,0,0,1,22,21.26a5.534,5.534,0,0,1,1-.65,5.1,5.1,0,0,1,1-.4,4.768,4.768,0,0,1,1-.18,4.078,4.078,0,0,1,.5-.03,5.5,5.5,0,0,1,0,11ZM25,23h1a1,1,0,0,1,1,1,.5.5,0,0,0,1,0,2.006,2.006,0,0,0-2-2v-.5a.5.5,0,0,0-1,0V22a2,2,0,0,0,0,4h1a1,1,0,0,1,0,2H25a1,1,0,0,1-1-1,.5.5,0,0,0-1,0,2,2,0,0,0,2,2v.5a.5.5,0,0,0,1,0V29a2,2,0,0,0,0-4H25a1,1,0,0,1,0-2Z"/></svg>